# xmcd
#
# Track frame offsets: 
#        150
#        22608
#        36392
#        51350
#        63250
#        71219
#        90991
#        108562
#        115614
#        130109
#        153231
#        179117
#
# Disc length: 2424 seconds
#
# Revision: 2
# Processed by: cddbd v1.5.2PL0 Copyright (c) Steve Scherf et al.
# Submitted via: ExactAudioCopy v0.99pb3
#
DISCID=9d09760c
DTITLE=Captain Beefheart and The Magic Band - Bat Chain Puller- Original
DTITLE=Version
DYEAR=1976
DGENRE=
TTITLE0=Bat Chain Puller
TTITLE1=Seam Crooked Sam
TTITLE2=Harry Irene
TTITLE3='81 Poop Hatch
TTITLE4=Flavor Bud Living
TTITLE5=Brickbats
TTITLE6=Floppy Boot Stomp
TTITLE7=A Carrot Is As Close As A Rabbit Gets To A Diamond
TTITLE8=Carson City (Owed T'Alex)
TTITLE9=Odd Jobs
TTITLE10=The Thousandth And Tenth Day Of The Human Totem Pole
TTITLE11=Apes-Ma
EXTD=
EXTT0=
EXTT1=
EXTT2=
EXTT3=
EXTT4=
EXTT5=
EXTT6=
EXTT7=
EXTT8=
EXTT9=
EXTT10=
EXTT11=
PLAYORDER=
